<mxfile host="Electron" modified="2024-10-17T05:18:16.983Z" agent="Mozilla/5.0 (Windows NT 10.0; Win64; x64) AppleWebKit/537.36 (KHTML, like Gecko) draw.io/24.4.8 Chrome/124.0.6367.207 Electron/30.0.6 Safari/537.36" etag="e19kDkmER6UL27AvXTGN" version="24.4.8" type="device">
  <diagram name="PÃ¡gina-1" id="kMlKF6I7tA-xaTyNYO3T">
    <mxGraphModel dx="2309" dy="1741" grid="0" gridSize="10" guides="1" tooltips="1" connect="1" arrows="1" fold="1" page="0" pageScale="1" pageWidth="827" pageHeight="1169" math="0" shadow="0">
      <root>
        <mxCell id="0" />
        <mxCell id="1" parent="0" />
        <mxCell id="zbOgL6AvuCe0vDmPsuQd-7" value="RegistroAtencion" style="swimlane;fontStyle=1;align=center;verticalAlign=top;childLayout=stackLayout;horizontal=1;startSize=26;horizontalStack=0;resizeParent=1;resizeParentMax=0;resizeLast=0;collapsible=1;marginBottom=0;whiteSpace=wrap;html=1;" vertex="1" parent="1">
          <mxGeometry x="428" y="-217" width="238" height="190" as="geometry" />
        </mxCell>
        <mxCell id="zbOgL6AvuCe0vDmPsuQd-8" value="#fechaAtencion:Date&lt;div&gt;-descripcion:String&lt;/div&gt;" style="text;strokeColor=none;fillColor=none;align=left;verticalAlign=top;spacingLeft=4;spacingRight=4;overflow=hidden;rotatable=0;points=[[0,0.5],[1,0.5]];portConstraint=eastwest;whiteSpace=wrap;html=1;" vertex="1" parent="zbOgL6AvuCe0vDmPsuQd-7">
          <mxGeometry y="26" width="238" height="52" as="geometry" />
        </mxCell>
        <mxCell id="zbOgL6AvuCe0vDmPsuQd-9" value="" style="line;strokeWidth=1;fillColor=none;align=left;verticalAlign=middle;spacingTop=-1;spacingLeft=3;spacingRight=3;rotatable=0;labelPosition=right;points=[];portConstraint=eastwest;strokeColor=inherit;" vertex="1" parent="zbOgL6AvuCe0vDmPsuQd-7">
          <mxGeometry y="78" width="238" height="8" as="geometry" />
        </mxCell>
        <mxCell id="zbOgL6AvuCe0vDmPsuQd-10" value="+getFechaAtencion():Date&lt;div&gt;+getDescripcion():String&lt;/div&gt;&lt;div&gt;&lt;br&gt;&lt;/div&gt;" style="text;strokeColor=none;fillColor=none;align=left;verticalAlign=top;spacingLeft=4;spacingRight=4;overflow=hidden;rotatable=0;points=[[0,0.5],[1,0.5]];portConstraint=eastwest;whiteSpace=wrap;html=1;" vertex="1" parent="zbOgL6AvuCe0vDmPsuQd-7">
          <mxGeometry y="86" width="238" height="104" as="geometry" />
        </mxCell>
        <mxCell id="zbOgL6AvuCe0vDmPsuQd-11" value="AtencionAmbulatoria" style="swimlane;fontStyle=1;align=center;verticalAlign=top;childLayout=stackLayout;horizontal=1;startSize=26;horizontalStack=0;resizeParent=1;resizeParentMax=0;resizeLast=0;collapsible=1;marginBottom=0;whiteSpace=wrap;html=1;" vertex="1" parent="1">
          <mxGeometry x="689" y="98" width="160" height="86" as="geometry" />
        </mxCell>
        <mxCell id="zbOgL6AvuCe0vDmPsuQd-12" value="-dependencia:String" style="text;strokeColor=none;fillColor=none;align=left;verticalAlign=top;spacingLeft=4;spacingRight=4;overflow=hidden;rotatable=0;points=[[0,0.5],[1,0.5]];portConstraint=eastwest;whiteSpace=wrap;html=1;" vertex="1" parent="zbOgL6AvuCe0vDmPsuQd-11">
          <mxGeometry y="26" width="160" height="26" as="geometry" />
        </mxCell>
        <mxCell id="zbOgL6AvuCe0vDmPsuQd-13" value="" style="line;strokeWidth=1;fillColor=none;align=left;verticalAlign=middle;spacingTop=-1;spacingLeft=3;spacingRight=3;rotatable=0;labelPosition=right;points=[];portConstraint=eastwest;strokeColor=inherit;" vertex="1" parent="zbOgL6AvuCe0vDmPsuQd-11">
          <mxGeometry y="52" width="160" height="8" as="geometry" />
        </mxCell>
        <mxCell id="zbOgL6AvuCe0vDmPsuQd-14" value="+getDependencia():String&lt;div&gt;&lt;br&gt;&lt;/div&gt;" style="text;strokeColor=none;fillColor=none;align=left;verticalAlign=top;spacingLeft=4;spacingRight=4;overflow=hidden;rotatable=0;points=[[0,0.5],[1,0.5]];portConstraint=eastwest;whiteSpace=wrap;html=1;" vertex="1" parent="zbOgL6AvuCe0vDmPsuQd-11">
          <mxGeometry y="60" width="160" height="26" as="geometry" />
        </mxCell>
        <mxCell id="zbOgL6AvuCe0vDmPsuQd-15" value="Internacion" style="swimlane;fontStyle=1;align=center;verticalAlign=top;childLayout=stackLayout;horizontal=1;startSize=26;horizontalStack=0;resizeParent=1;resizeParentMax=0;resizeLast=0;collapsible=1;marginBottom=0;whiteSpace=wrap;html=1;" vertex="1" parent="1">
          <mxGeometry x="259" y="77" width="200" height="177" as="geometry" />
        </mxCell>
        <mxCell id="zbOgL6AvuCe0vDmPsuQd-16" value="-fechaAlta:Date&lt;div&gt;-responsableInternacion:String&lt;/div&gt;" style="text;strokeColor=none;fillColor=none;align=left;verticalAlign=top;spacingLeft=4;spacingRight=4;overflow=hidden;rotatable=0;points=[[0,0.5],[1,0.5]];portConstraint=eastwest;whiteSpace=wrap;html=1;" vertex="1" parent="zbOgL6AvuCe0vDmPsuQd-15">
          <mxGeometry y="26" width="200" height="46" as="geometry" />
        </mxCell>
        <mxCell id="zbOgL6AvuCe0vDmPsuQd-17" value="" style="line;strokeWidth=1;fillColor=none;align=left;verticalAlign=middle;spacingTop=-1;spacingLeft=3;spacingRight=3;rotatable=0;labelPosition=right;points=[];portConstraint=eastwest;strokeColor=inherit;" vertex="1" parent="zbOgL6AvuCe0vDmPsuQd-15">
          <mxGeometry y="72" width="200" height="8" as="geometry" />
        </mxCell>
        <mxCell id="zbOgL6AvuCe0vDmPsuQd-18" value="+setFechaAlta(Date):void&lt;div&gt;+calcularDiasInternacion():long&lt;/div&gt;&lt;div&gt;&lt;br&gt;&lt;/div&gt;" style="text;strokeColor=none;fillColor=none;align=left;verticalAlign=top;spacingLeft=4;spacingRight=4;overflow=hidden;rotatable=0;points=[[0,0.5],[1,0.5]];portConstraint=eastwest;whiteSpace=wrap;html=1;" vertex="1" parent="zbOgL6AvuCe0vDmPsuQd-15">
          <mxGeometry y="80" width="200" height="97" as="geometry" />
        </mxCell>
        <mxCell id="zbOgL6AvuCe0vDmPsuQd-19" value="DatosPaciente" style="swimlane;fontStyle=1;align=center;verticalAlign=top;childLayout=stackLayout;horizontal=1;startSize=26;horizontalStack=0;resizeParent=1;resizeParentMax=0;resizeLast=0;collapsible=1;marginBottom=0;whiteSpace=wrap;html=1;" vertex="1" parent="1">
          <mxGeometry x="-614" y="-235" width="209" height="197" as="geometry" />
        </mxCell>
        <mxCell id="zbOgL6AvuCe0vDmPsuQd-20" value="-nombre:String&lt;div&gt;-apellido:String&lt;/div&gt;&lt;div&gt;-direccion:String&lt;/div&gt;&lt;div&gt;-fechaDeNacimiento:Date&lt;/div&gt;" style="text;strokeColor=none;fillColor=none;align=left;verticalAlign=top;spacingLeft=4;spacingRight=4;overflow=hidden;rotatable=0;points=[[0,0.5],[1,0.5]];portConstraint=eastwest;whiteSpace=wrap;html=1;" vertex="1" parent="zbOgL6AvuCe0vDmPsuQd-19">
          <mxGeometry y="26" width="209" height="78" as="geometry" />
        </mxCell>
        <mxCell id="zbOgL6AvuCe0vDmPsuQd-21" value="" style="line;strokeWidth=1;fillColor=none;align=left;verticalAlign=middle;spacingTop=-1;spacingLeft=3;spacingRight=3;rotatable=0;labelPosition=right;points=[];portConstraint=eastwest;strokeColor=inherit;" vertex="1" parent="zbOgL6AvuCe0vDmPsuQd-19">
          <mxGeometry y="104" width="209" height="8" as="geometry" />
        </mxCell>
        <mxCell id="zbOgL6AvuCe0vDmPsuQd-22" value="+getNombre():String&lt;div&gt;+getApellido():String&lt;/div&gt;&lt;div&gt;+getDireccion():String&lt;/div&gt;&lt;div&gt;+getFechaDeNacimiento:Date&lt;/div&gt;" style="text;strokeColor=none;fillColor=none;align=left;verticalAlign=top;spacingLeft=4;spacingRight=4;overflow=hidden;rotatable=0;points=[[0,0.5],[1,0.5]];portConstraint=eastwest;whiteSpace=wrap;html=1;" vertex="1" parent="zbOgL6AvuCe0vDmPsuQd-19">
          <mxGeometry y="112" width="209" height="85" as="geometry" />
        </mxCell>
        <mxCell id="zbOgL6AvuCe0vDmPsuQd-23" value="HistoriaClinica" style="swimlane;fontStyle=1;align=center;verticalAlign=top;childLayout=stackLayout;horizontal=1;startSize=26;horizontalStack=0;resizeParent=1;resizeParentMax=0;resizeLast=0;collapsible=1;marginBottom=0;whiteSpace=wrap;html=1;" vertex="1" parent="1">
          <mxGeometry x="-115" y="-214" width="235" height="143" as="geometry" />
        </mxCell>
        <mxCell id="zbOgL6AvuCe0vDmPsuQd-24" value="-datosPaciente:DatosPaciente&lt;div&gt;-atenciones:List&amp;lt;RegistroAtencion&amp;gt;&lt;/div&gt;" style="text;strokeColor=none;fillColor=none;align=left;verticalAlign=top;spacingLeft=4;spacingRight=4;overflow=hidden;rotatable=0;points=[[0,0.5],[1,0.5]];portConstraint=eastwest;whiteSpace=wrap;html=1;" vertex="1" parent="zbOgL6AvuCe0vDmPsuQd-23">
          <mxGeometry y="26" width="235" height="83" as="geometry" />
        </mxCell>
        <mxCell id="zbOgL6AvuCe0vDmPsuQd-25" value="" style="line;strokeWidth=1;fillColor=none;align=left;verticalAlign=middle;spacingTop=-1;spacingLeft=3;spacingRight=3;rotatable=0;labelPosition=right;points=[];portConstraint=eastwest;strokeColor=inherit;" vertex="1" parent="zbOgL6AvuCe0vDmPsuQd-23">
          <mxGeometry y="109" width="235" height="8" as="geometry" />
        </mxCell>
        <mxCell id="zbOgL6AvuCe0vDmPsuQd-26" value="+addAtencion(RegistroAtencion):void" style="text;strokeColor=none;fillColor=none;align=left;verticalAlign=top;spacingLeft=4;spacingRight=4;overflow=hidden;rotatable=0;points=[[0,0.5],[1,0.5]];portConstraint=eastwest;whiteSpace=wrap;html=1;" vertex="1" parent="zbOgL6AvuCe0vDmPsuQd-23">
          <mxGeometry y="117" width="235" height="26" as="geometry" />
        </mxCell>
        <mxCell id="zbOgL6AvuCe0vDmPsuQd-27" value="Cama" style="swimlane;fontStyle=1;align=center;verticalAlign=top;childLayout=stackLayout;horizontal=1;startSize=26;horizontalStack=0;resizeParent=1;resizeParentMax=0;resizeLast=0;collapsible=1;marginBottom=0;whiteSpace=wrap;html=1;" vertex="1" parent="1">
          <mxGeometry x="-310" y="-625" width="238" height="261" as="geometry" />
        </mxCell>
        <mxCell id="zbOgL6AvuCe0vDmPsuQd-28" value="_GENERAL:int&lt;div&gt;_TERAPIA_INTERMEDIA:int&lt;/div&gt;&lt;div&gt;_TERAPIA_INTENSIVA:int&lt;/div&gt;&lt;div&gt;-tipoCama:int&lt;/div&gt;&lt;div&gt;-disponible:boolean&lt;/div&gt;&lt;div&gt;-ocupanteActual:DatosPaciente&lt;/div&gt;" style="text;strokeColor=none;fillColor=none;align=left;verticalAlign=top;spacingLeft=4;spacingRight=4;overflow=hidden;rotatable=0;points=[[0,0.5],[1,0.5]];portConstraint=eastwest;whiteSpace=wrap;html=1;" vertex="1" parent="zbOgL6AvuCe0vDmPsuQd-27">
          <mxGeometry y="26" width="238" height="95" as="geometry" />
        </mxCell>
        <mxCell id="zbOgL6AvuCe0vDmPsuQd-29" value="" style="line;strokeWidth=1;fillColor=none;align=left;verticalAlign=middle;spacingTop=-1;spacingLeft=3;spacingRight=3;rotatable=0;labelPosition=right;points=[];portConstraint=eastwest;strokeColor=inherit;" vertex="1" parent="zbOgL6AvuCe0vDmPsuQd-27">
          <mxGeometry y="121" width="238" height="8" as="geometry" />
        </mxCell>
        <mxCell id="zbOgL6AvuCe0vDmPsuQd-30" value="+isDisponible():boolean&lt;div&gt;+getTipoCama()int&lt;/div&gt;&lt;div&gt;+setOcupanteActual(DatosPaciente):void&lt;/div&gt;&lt;div&gt;+getOcupanteActual():DatosPaciente&lt;/div&gt;" style="text;strokeColor=none;fillColor=none;align=left;verticalAlign=top;spacingLeft=4;spacingRight=4;overflow=hidden;rotatable=0;points=[[0,0.5],[1,0.5]];portConstraint=eastwest;whiteSpace=wrap;html=1;" vertex="1" parent="zbOgL6AvuCe0vDmPsuQd-27">
          <mxGeometry y="129" width="238" height="132" as="geometry" />
        </mxCell>
        <mxCell id="zbOgL6AvuCe0vDmPsuQd-41" style="edgeStyle=none;curved=1;rounded=0;orthogonalLoop=1;jettySize=auto;html=1;fontSize=12;startSize=8;endSize=14;dashed=1;dashPattern=8 8;endArrow=open;endFill=0;" edge="1" parent="1" source="zbOgL6AvuCe0vDmPsuQd-31" target="zbOgL6AvuCe0vDmPsuQd-19">
          <mxGeometry relative="1" as="geometry" />
        </mxCell>
        <mxCell id="zbOgL6AvuCe0vDmPsuQd-31" value="AdministradorDeCamas" style="swimlane;fontStyle=1;align=center;verticalAlign=top;childLayout=stackLayout;horizontal=1;startSize=26;horizontalStack=0;resizeParent=1;resizeParentMax=0;resizeLast=0;collapsible=1;marginBottom=0;whiteSpace=wrap;html=1;" vertex="1" parent="1">
          <mxGeometry x="-777" y="-575" width="239" height="225" as="geometry" />
        </mxCell>
        <mxCell id="zbOgL6AvuCe0vDmPsuQd-32" value="-camas:List&amp;lt;Cama&amp;gt;" style="text;strokeColor=none;fillColor=none;align=left;verticalAlign=top;spacingLeft=4;spacingRight=4;overflow=hidden;rotatable=0;points=[[0,0.5],[1,0.5]];portConstraint=eastwest;whiteSpace=wrap;html=1;" vertex="1" parent="zbOgL6AvuCe0vDmPsuQd-31">
          <mxGeometry y="26" width="239" height="26" as="geometry" />
        </mxCell>
        <mxCell id="zbOgL6AvuCe0vDmPsuQd-33" value="" style="line;strokeWidth=1;fillColor=none;align=left;verticalAlign=middle;spacingTop=-1;spacingLeft=3;spacingRight=3;rotatable=0;labelPosition=right;points=[];portConstraint=eastwest;strokeColor=inherit;" vertex="1" parent="zbOgL6AvuCe0vDmPsuQd-31">
          <mxGeometry y="52" width="239" height="8" as="geometry" />
        </mxCell>
        <mxCell id="zbOgL6AvuCe0vDmPsuQd-34" value="&lt;div&gt;+cargarNuevaCama(int):void&lt;/div&gt;&lt;div&gt;+camasDisponibles():int&lt;/div&gt;&lt;div&gt;+capacidadCamasUTI:int&lt;/div&gt;&lt;div&gt;+listarOcupantes:List&amp;lt;DatosPaciente&amp;gt;&lt;/div&gt;" style="text;strokeColor=none;fillColor=none;align=left;verticalAlign=top;spacingLeft=4;spacingRight=4;overflow=hidden;rotatable=0;points=[[0,0.5],[1,0.5]];portConstraint=eastwest;whiteSpace=wrap;html=1;" vertex="1" parent="zbOgL6AvuCe0vDmPsuQd-31">
          <mxGeometry y="60" width="239" height="165" as="geometry" />
        </mxCell>
        <mxCell id="zbOgL6AvuCe0vDmPsuQd-35" style="edgeStyle=none;curved=1;rounded=0;orthogonalLoop=1;jettySize=auto;html=1;exitX=0.5;exitY=0;exitDx=0;exitDy=0;entryX=0.004;entryY=0.962;entryDx=0;entryDy=0;entryPerimeter=0;fontSize=12;startSize=8;endSize=8;endArrow=block;endFill=0;" edge="1" parent="1" source="zbOgL6AvuCe0vDmPsuQd-15" target="zbOgL6AvuCe0vDmPsuQd-10">
          <mxGeometry relative="1" as="geometry" />
        </mxCell>
        <mxCell id="zbOgL6AvuCe0vDmPsuQd-36" style="edgeStyle=none;curved=1;rounded=0;orthogonalLoop=1;jettySize=auto;html=1;exitX=0.5;exitY=0;exitDx=0;exitDy=0;entryX=0.992;entryY=1.01;entryDx=0;entryDy=0;entryPerimeter=0;fontSize=12;startSize=8;endSize=8;endArrow=block;endFill=0;" edge="1" parent="1" source="zbOgL6AvuCe0vDmPsuQd-11" target="zbOgL6AvuCe0vDmPsuQd-10">
          <mxGeometry relative="1" as="geometry" />
        </mxCell>
        <mxCell id="zbOgL6AvuCe0vDmPsuQd-37" style="edgeStyle=none;curved=1;rounded=0;orthogonalLoop=1;jettySize=auto;html=1;exitX=1;exitY=0.5;exitDx=0;exitDy=0;fontSize=12;startSize=8;endSize=8;endArrow=none;endFill=0;entryX=-0.013;entryY=0.923;entryDx=0;entryDy=0;entryPerimeter=0;" edge="1" parent="1" source="zbOgL6AvuCe0vDmPsuQd-24" target="zbOgL6AvuCe0vDmPsuQd-8">
          <mxGeometry relative="1" as="geometry">
            <mxPoint x="281" y="-145" as="targetPoint" />
          </mxGeometry>
        </mxCell>
        <mxCell id="zbOgL6AvuCe0vDmPsuQd-38" style="edgeStyle=none;curved=1;rounded=0;orthogonalLoop=1;jettySize=auto;html=1;entryX=0.99;entryY=0.782;entryDx=0;entryDy=0;entryPerimeter=0;fontSize=12;startSize=8;endSize=8;endArrow=none;endFill=0;" edge="1" parent="1" source="zbOgL6AvuCe0vDmPsuQd-24" target="zbOgL6AvuCe0vDmPsuQd-20">
          <mxGeometry relative="1" as="geometry" />
        </mxCell>
        <mxCell id="zbOgL6AvuCe0vDmPsuQd-39" style="edgeStyle=none;curved=1;rounded=0;orthogonalLoop=1;jettySize=auto;html=1;fontSize=12;startSize=8;endSize=8;endArrow=none;endFill=0;" edge="1" parent="1" source="zbOgL6AvuCe0vDmPsuQd-34" target="zbOgL6AvuCe0vDmPsuQd-30">
          <mxGeometry relative="1" as="geometry" />
        </mxCell>
        <mxCell id="zbOgL6AvuCe0vDmPsuQd-40" style="edgeStyle=none;curved=1;rounded=0;orthogonalLoop=1;jettySize=auto;html=1;entryX=0.651;entryY=0.01;entryDx=0;entryDy=0;entryPerimeter=0;fontSize=12;startSize=8;endSize=8;endArrow=none;endFill=0;" edge="1" parent="1" source="zbOgL6AvuCe0vDmPsuQd-30" target="zbOgL6AvuCe0vDmPsuQd-19">
          <mxGeometry relative="1" as="geometry" />
        </mxCell>
        <mxCell id="zbOgL6AvuCe0vDmPsuQd-42" value="" style="triangle;whiteSpace=wrap;html=1;" vertex="1" parent="1">
          <mxGeometry x="-396" y="-466" width="14" height="17" as="geometry" />
        </mxCell>
        <mxCell id="zbOgL6AvuCe0vDmPsuQd-46" value="1 .. 1" style="text;html=1;align=center;verticalAlign=middle;whiteSpace=wrap;rounded=0;fontSize=16;" vertex="1" parent="1">
          <mxGeometry x="-409" y="-177" width="43" height="30" as="geometry" />
        </mxCell>
        <mxCell id="zbOgL6AvuCe0vDmPsuQd-47" value="1 ..1&amp;nbsp;" style="text;html=1;align=center;verticalAlign=middle;whiteSpace=wrap;rounded=0;fontSize=16;" vertex="1" parent="1">
          <mxGeometry x="-171" y="-177" width="49" height="30" as="geometry" />
        </mxCell>
        <mxCell id="zbOgL6AvuCe0vDmPsuQd-48" value="1 ..1&amp;nbsp;" style="text;html=1;align=center;verticalAlign=middle;whiteSpace=wrap;rounded=0;fontSize=16;" vertex="1" parent="1">
          <mxGeometry x="-500" y="-276" width="60" height="30" as="geometry" />
        </mxCell>
        <mxCell id="zbOgL6AvuCe0vDmPsuQd-49" value="1 .. 1" style="text;html=1;align=center;verticalAlign=middle;whiteSpace=wrap;rounded=0;fontSize=16;" vertex="1" parent="1">
          <mxGeometry x="-370" y="-383" width="60" height="30" as="geometry" />
        </mxCell>
        <mxCell id="zbOgL6AvuCe0vDmPsuQd-50" value="0 .. *" style="text;html=1;align=center;verticalAlign=middle;whiteSpace=wrap;rounded=0;fontSize=16;" vertex="1" parent="1">
          <mxGeometry x="-368" y="-466" width="60" height="30" as="geometry" />
        </mxCell>
        <mxCell id="zbOgL6AvuCe0vDmPsuQd-51" value="1 .. 1" style="text;html=1;align=center;verticalAlign=middle;whiteSpace=wrap;rounded=0;fontSize=16;" vertex="1" parent="1">
          <mxGeometry x="-534" y="-464" width="60" height="30" as="geometry" />
        </mxCell>
        <mxCell id="zbOgL6AvuCe0vDmPsuQd-52" value="0 .. *" style="text;html=1;align=center;verticalAlign=middle;whiteSpace=wrap;rounded=0;fontSize=16;" vertex="1" parent="1">
          <mxGeometry x="366" y="-172" width="60" height="30" as="geometry" />
        </mxCell>
        <mxCell id="zbOgL6AvuCe0vDmPsuQd-53" value="0 .. 1" style="text;html=1;align=center;verticalAlign=middle;whiteSpace=wrap;rounded=0;fontSize=16;" vertex="1" parent="1">
          <mxGeometry x="126" y="-181" width="60" height="30" as="geometry" />
        </mxCell>
        <mxCell id="zbOgL6AvuCe0vDmPsuQd-55" value="gestiona" style="text;html=1;align=center;verticalAlign=middle;whiteSpace=wrap;rounded=0;fontSize=16;" vertex="1" parent="1">
          <mxGeometry x="-470" y="-472.5" width="60" height="30" as="geometry" />
        </mxCell>
        <mxCell id="zbOgL6AvuCe0vDmPsuQd-63" value="" style="edgeStyle=none;curved=1;rounded=0;orthogonalLoop=1;jettySize=auto;html=1;fontSize=12;startSize=8;endSize=8;" edge="1" parent="1" source="zbOgL6AvuCe0vDmPsuQd-57" target="zbOgL6AvuCe0vDmPsuQd-61">
          <mxGeometry relative="1" as="geometry" />
        </mxCell>
        <mxCell id="zbOgL6AvuCe0vDmPsuQd-57" value="" style="triangle;whiteSpace=wrap;html=1;rotation=135;" vertex="1" parent="1">
          <mxGeometry x="-454" y="-282" width="14" height="20" as="geometry" />
        </mxCell>
        <mxCell id="zbOgL6AvuCe0vDmPsuQd-61" value="es ocupada por" style="text;html=1;align=center;verticalAlign=middle;whiteSpace=wrap;rounded=0;fontSize=16;rotation=-40;" vertex="1" parent="1">
          <mxGeometry x="-451" y="-330" width="124" height="29" as="geometry" />
        </mxCell>
        <mxCell id="zbOgL6AvuCe0vDmPsuQd-64" value="esta formada por" style="text;html=1;align=center;verticalAlign=middle;whiteSpace=wrap;rounded=0;fontSize=16;" vertex="1" parent="1">
          <mxGeometry x="-317" y="-175" width="139" height="18" as="geometry" />
        </mxCell>
        <mxCell id="zbOgL6AvuCe0vDmPsuQd-67" value="" style="triangle;whiteSpace=wrap;html=1;rotation=-179;" vertex="1" parent="1">
          <mxGeometry x="-336" y="-175" width="17" height="20" as="geometry" />
        </mxCell>
        <mxCell id="zbOgL6AvuCe0vDmPsuQd-68" value="esta formada por&amp;nbsp;" style="text;html=1;align=center;verticalAlign=middle;whiteSpace=wrap;rounded=0;fontSize=16;" vertex="1" parent="1">
          <mxGeometry x="189" y="-174" width="141" height="18" as="geometry" />
        </mxCell>
        <mxCell id="zbOgL6AvuCe0vDmPsuQd-70" value="" style="triangle;whiteSpace=wrap;html=1;" vertex="1" parent="1">
          <mxGeometry x="322" y="-173" width="14" height="17" as="geometry" />
        </mxCell>
      </root>
    </mxGraphModel>
  </diagram>
</mxfile>
